<?xml version="1.0" encoding="UTF-8" standalone="no"?>
<!-- Created with Inkscape (http://www.inkscape.org/) -->

<svg
   width="210mm"
   height="297mm"
   viewBox="0 0 210 297"
   version="1.1"
   id="svg5"
   inkscape:version="1.2.1 (9c6d41e410, 2022-07-14)"
   sodipodi:docname="Ur Anus.svg"
   xmlns:inkscape="http://www.inkscape.org/namespaces/inkscape"
   xmlns:sodipodi="http://sodipodi.sourceforge.net/DTD/sodipodi-0.dtd"
   xmlns="http://www.w3.org/2000/svg"
   xmlns:svg="http://www.w3.org/2000/svg">
  <sodipodi:namedview
     id="namedview7"
     pagecolor="#505050"
     bordercolor="#ffffff"
     borderopacity="1"
     inkscape:showpageshadow="0"
     inkscape:pageopacity="0"
     inkscape:pagecheckerboard="1"
     inkscape:deskcolor="#505050"
     inkscape:document-units="mm"
     showgrid="false"
     inkscape:zoom="0.7251543"
     inkscape:cx="266.83976"
     inkscape:cy="459.90212"
     inkscape:window-width="1920"
     inkscape:window-height="1001"
     inkscape:window-x="-9"
     inkscape:window-y="-9"
     inkscape:window-maximized="1"
     inkscape:current-layer="layer1" />
  <defs
     id="defs2">
    <inkscape:path-effect
       effect="bspline"
       id="path-effect788"
       is_visible="true"
       lpeversion="1"
       weight="33.333333"
       steps="2"
       helper_size="0"
       apply_no_weight="true"
       apply_with_weight="true"
       only_selected="false" />
  </defs>
  <g
     inkscape:label="Layer 1"
     inkscape:groupmode="layer"
     id="layer1">
    <g
       id="g2331"
       transform="matrix(2.7220867,0,0,2.7322586,-177.57504,-293.88377)">
      <g
         id="g2203"
         transform="translate(-40.203272,8.0109161)">
        <path
           style="fill:#23d7ff;fill-opacity:1;stroke:#000000;stroke-width:1.1;stroke-dasharray:none;stroke-opacity:1"
           id="path234"
           sodipodi:type="arc"
           sodipodi:cx="144.69209"
           sodipodi:cy="149.43272"
           sodipodi:rx="37.581001"
           sodipodi:ry="37.581001"
           sodipodi:start="0"
           sodipodi:end="6.2637611"
           sodipodi:arc-type="arc"
           d="m 182.27309,149.43272 a 37.581001,37.581001 0 0 1 -37.3985,37.58056 37.581001,37.581001 0 0 1 -37.76173,-37.21557 37.581001,37.581001 0 0 1 37.03177,-37.942 37.581001,37.581001 0 0 1 38.12137,36.84708"
           sodipodi:open="true" />
        <path
           style="fill:#000080;stroke:#000000;stroke-width:1;stroke-dasharray:none;stroke-opacity:1"
           d="m 183.73873,140.21165 c 2.67458,0.23431 8.02336,0.7029 10.39669,3.22494 2.37333,2.52203 1.77135,7.09702 -2.89409,10.25744 -4.66545,3.16041 -13.39405,4.90613 -22.03716,6.59605 -8.64312,1.68992 -17.1999,3.32387 -27.84247,5.64589 -10.64256,2.32201 -23.37043,5.33198 -36.09835,8.34196 0,0 0.774,11.35193 0.774,11.35193 0,0 -15.866902,-12.77092 -15.866902,-12.77092 0,0 13.028922,-16.2539 13.028922,-16.2539 0,0 1.28999,9.80394 1.28999,9.80394 8.51395,-2.14999 17.02808,-4.30002 26.01512,-6.53603 8.98704,-2.23601 18.4466,-4.5579 27.15259,-6.43397 8.70598,-1.87608 16.65732,-3.30611 20.60926,-4.45908 3.95193,-1.15298 3.90417,-2.02907 3.70388,-3.48333 -0.20029,-1.45426 -0.55315,-3.48657 -0.7296,-4.5029 -0.17646,-1.01633 -0.17646,-1.01633 2.49812,-0.78202 z"
           id="path786"
           inkscape:path-effect="#path-effect788"
           inkscape:original-d="m 181.06415,139.97734 c 5.34914,0.46886 10.69792,0.93745 16.04664,1.40579 -0.60175,4.57553 -1.20372,9.15052 -1.806,13.72553 -8.72885,1.74608 -17.45745,3.4918 -26.18683,5.23736 -8.55685,1.63428 -17.11363,3.26824 -25.67084,4.90196 -12.72791,3.01031 -38.18377,9.02995 -38.18377,9.02995 l 0.774,11.35193 -15.866902,-12.77092 13.028922,-16.2539 1.28999,9.80394 c 0,0 17.02816,-4.29971 25.54184,-6.44996 9.4604,-2.32177 18.91996,-4.64366 28.37983,-6.96596 7.95208,-1.42985 15.90342,-2.85988 23.85497,-4.29027 -0.0475,-0.87588 -0.0952,-1.75198 -0.14327,-2.62839 -0.3526,-2.03213 -0.70546,-4.06444 -1.05858,-6.09706 2.6e-4,2.6e-4 2.6e-4,2.6e-4 0,0 z"
           sodipodi:nodetypes="scccccccccccccss" />
      </g>
      <text
         xml:space="preserve"
         style="font-style:normal;font-variant:normal;font-weight:normal;font-stretch:normal;font-size:18.9709px;font-family:'Eras Bold ITC';-inkscape-font-specification:'Eras Bold ITC, Normal';font-variant-ligatures:normal;font-variant-caps:normal;font-variant-numeric:normal;font-variant-east-asian:normal;fill:#000080;stroke:#000000;stroke-width:0.5;stroke-dasharray:none;stroke-opacity:1"
         x="91.862999"
         y="123.58943"
         id="text2207"
         transform="scale(0.80453188,1.2429588)"><tspan
           sodipodi:role="line"
           id="tspan2259"
           x="91.862999"
           y="123.58943"
           style="fill:#000080;stroke:#000000;stroke-width:0.5;stroke-dasharray:none;stroke-opacity:1">Ur Anus</tspan></text>
    </g>
  </g>
</svg>
